<?xml version="1.0" encoding="UTF-8"?>
<!-- Generated by Pixelmator Pro 3.2.3 -->
<svg width="512" height="512" viewBox="0 0 512 512" xmlns="http://www.w3.org/2000/svg" xmlns:xlink="http://www.w3.org/1999/xlink">
    <g id="New-Group">
        <g id="g264">
            <path id="path266" fill="#625990" stroke="none" d="M 111.774071 264.075409 L 398.75351 264.075409 L 383.042999 236.649994 L 159.003494 236.649994 L 236.635071 102.15976 L 130.338364 102.15976 L 114.112427 129.686646 L 188.764786 129.686646 Z"/>
        </g>
        <g id="g268">
            <path id="path270" fill="#da462a" stroke="none" d="M 287.00177 68.158813 L 210.014496 202.545837 L 363.504547 202.545837 L 363.470154 202.483917 L 347.739075 175.020691 L 257.235321 175.020691 L 334.873779 40.62674 L 166.607895 40.62674 L 150.381958 68.158813 Z"/>
        </g>
    </g>
    <g id="New-Group-copy">
        <g id="g244">
            <path id="path246" fill="#ffffff" stroke="none" d="M 100.028992 360.679199 C 98.783356 356.325867 96.95871 352.239166 94.553345 348.431091 C 92.144539 344.616119 89.227165 341.358459 85.811546 338.628784 C 82.39592 335.911194 78.547325 333.774963 74.272644 332.214935 C 70.003113 330.661774 65.455246 329.87915 60.644512 329.87915 C 55.823463 329.87915 51.284187 330.661774 47.009502 332.214935 C 42.731384 333.774963 38.882793 335.911194 35.474041 338.628784 C 32.048107 341.358459 29.098095 344.616119 26.610256 348.431091 C 24.124134 352.239166 22.340725 356.325867 21.249718 360.679199 Z M 60.644512 431.376343 C 52.256645 431.376343 44.367035 429.776764 36.982552 426.5896 C 29.60494 423.405884 23.153397 419.047394 17.636509 413.529663 C 12.128215 408.005005 7.77106 401.592834 4.592537 394.27597 C 1.403705 386.965973 -0.185557 379.112427 -0.185557 370.717102 C -0.185557 362.311493 1.403705 354.382294 4.592537 346.91748 C 7.77106 339.445801 12.128215 332.999237 17.636509 327.550293 C 23.153397 322.101318 29.60494 317.789276 36.982552 314.598694 C 44.367035 311.41153 52.256645 309.818787 60.644512 309.818787 C 69.028938 309.818787 76.911674 311.41153 84.297874 314.598694 C 91.677208 317.789276 98.078926 322.101318 103.525368 327.550293 C 108.961502 332.999237 113.27227 339.445801 116.459381 346.91748 C 119.644783 354.382294 121.23748 362.311493 121.23748 370.717102 L 121.23748 374.210449 C 121.23748 375.459167 121.07769 377.557556 120.771866 380.509094 L 21.249718 380.509094 C 22.340725 385.022369 24.124134 389.141785 26.610256 392.877594 C 29.098095 396.609985 32.048107 399.87973 35.474041 402.68158 C 38.882793 405.478333 42.731384 407.655823 47.009502 409.210724 C 51.284187 410.767334 55.823463 411.541321 60.644512 411.541321 C 64.3694 411.541321 68.099442 410.572937 71.826042 408.625916 C 75.554359 406.687469 79.129768 404.076538 82.547112 400.810242 L 96.537773 414.809326 C 91.405746 419.790466 85.768585 423.794586 79.645203 426.828674 C 73.494339 429.855865 67.166496 431.376343 60.644512 431.376343"/>
        </g>
        <g id="g248">
            <path id="path250" fill="#ffffff" stroke="none" d="M 231.518509 428.313049 L 231.509903 428.316498 L 321.216431 428.316498 L 332.982117 408.295685 L 265.867157 408.295685 L 322.329773 310.558411 L 211.684509 310.558411 C 217.227173 313.509949 222.257813 316.934448 226.776474 321.456299 C 229.604492 324.289185 232.126709 327.362793 234.470215 330.575745 L 287.512054 330.575745 L 234.470215 423.161621 Z"/>
        </g>
        <g id="g252">
            <path id="path254" fill="#ffffff" stroke="none" d="M 416.369385 408.299133 L 367.129761 408.299133 L 423.599243 310.558411 L 332.982117 310.558411 L 322.011932 330.580902 L 388.776367 330.580902 L 332.782837 428.319946 L 437.481659 428.319946 C 431.612579 425.657349 427.334442 421.446808 422.973877 417.076294 C 420.329681 414.432648 418.372711 411.494873 416.369385 408.299133"/>
        </g>
        <g id="g256">
            <path id="path258" fill="#ffffff" stroke="none" d="M 491.894562 310.558411 L 491.894562 381.726837 C 491.894562 385.399048 491.214203 388.849365 489.834534 392.057159 C 488.458313 395.270111 486.580383 398.065125 484.21109 400.435272 C 481.841797 402.814026 479.056732 404.683685 475.845581 406.064819 C 472.637848 407.442566 469.196472 408.127136 465.523132 408.127136 C 461.85318 408.127136 458.453064 407.442566 455.317474 406.064819 C 452.180206 404.683685 449.431213 402.814026 447.070526 400.435272 C 444.692627 398.065125 442.823303 395.270111 441.448822 392.057159 C 440.064026 388.849365 439.380188 385.399048 439.380188 381.726837 L 439.380188 310.558411 L 419.663025 310.558411 L 419.663025 381.726837 C 419.663025 388.001404 420.879456 393.937134 423.332947 399.518494 C 425.779541 405.108521 429.061157 409.967529 433.184662 414.09552 C 437.31842 418.230408 442.197876 422.198425 447.778381 424.647705 C 453.353668 427.095276 459.282867 428.321625 465.552338 428.321625 C 470.43866 428.321625 475.099945 427.592346 479.53952 426.142395 C 483.972321 424.688995 488.075195 421.980011 491.894562 419.379364 L 491.894562 425.297882 C 491.894562 428.971802 491.095642 432.375702 489.490875 435.512939 C 487.881042 438.650238 485.70932 441.44696 482.951721 443.894531 C 480.206177 446.342072 476.953766 448.256439 473.206543 449.637604 C 469.462769 451.011871 465.449249 451.701599 461.165955 451.701599 L 407.617279 451.701599 L 407.617279 471.214996 L 461.341248 471.214996 L 461.341248 471.20639 C 468.306458 471.1875 474.825043 470.007568 480.886536 467.656311 C 486.999634 465.277557 492.318939 462.028473 496.835876 457.902222 C 501.332153 453.767334 504.885284 448.908325 507.493408 443.321777 C 510.087708 437.730042 511.391785 431.725525 511.391785 425.297882 L 511.391785 310.558411 Z"/>
        </g>
        <g id="g260">
            <path id="path262" fill="#ffffff" stroke="none" d="M 173.700287 330.575745 C 168.1353 330.575745 162.874405 331.621521 157.929657 333.714752 C 152.978043 335.802856 148.69133 337.753326 145.062653 341.470245 C 141.421951 345.183716 138.526932 349.523254 136.362091 354.478607 C 134.190384 359.43219 133.116562 364.690247 133.116562 370.263062 C 133.116562 375.839294 134.190384 381.097321 136.362091 386.056091 C 138.526932 391.006256 141.421951 395.306244 145.062653 398.940582 C 148.69133 402.57666 152.978043 405.48175 157.929657 407.645508 C 162.874405 409.812714 168.1353 410.896301 173.700287 410.896301 C 179.426788 410.896301 184.75296 409.812714 189.706314 407.645508 C 194.652771 405.48175 198.944641 402.57666 202.580185 398.940582 C 206.207138 395.306244 209.071243 391.006256 211.163925 386.056091 C 213.251434 381.097321 214.294327 375.839294 214.294327 370.263062 C 214.294327 364.690247 213.251434 359.43219 211.163925 354.478607 C 209.071243 349.523254 206.207138 345.183716 202.580185 341.470245 C 198.944641 337.753326 194.652771 335.802856 189.706314 333.714752 C 184.75296 331.621521 179.426788 330.575745 173.700287 330.575745 M 173.700287 310.558411 C 182.055511 310.558411 189.939972 312.147675 197.363983 315.315918 C 204.784546 318.489319 211.239517 321.927612 216.723755 327.428162 C 222.218307 332.920105 226.547974 339.34259 229.712753 346.699036 C 232.886108 354.052063 234.468521 361.905579 234.468521 370.263062 L 234.468521 428.313049 L 214.294327 428.313049 L 214.294327 415.309814 C 208.878815 420.112091 202.734818 423.863403 195.855469 426.56897 C 188.970947 429.277954 181.584763 430.63504 173.700287 430.63504 C 165.35022 430.63504 157.541367 429.040588 150.273712 425.874084 C 143.012939 422.700684 136.624954 418.409271 131.139008 412.987854 C 125.64962 407.569824 121.31823 401.185211 118.155159 393.830475 C 114.980072 386.479187 113.395973 378.622253 113.395973 370.263062 C 113.395973 361.905579 114.980072 354.052063 118.155159 346.699036 C 121.31823 339.34259 125.64962 332.920105 131.139008 327.428162 C 136.624954 321.927612 143.012939 318.489319 150.273712 315.315918 C 157.541367 312.147675 165.35022 310.558411 173.700287 310.558411"/>
        </g>
    </g>
</svg>
